<svg width="64" height="64" viewBox="0 0 64 64" fill="none" xmlns="http://www.w3.org/2000/svg">
  <!-- Main chat bubble background -->
  <path d="M12 10C8.68629 10 6 12.6863 6 16V38C6 41.3137 8.68629 44 12 44H16V52C16 53.1046 17.1154 53.8954 18.1056 53.4472L30.2111 48H52C55.3137 48 58 45.3137 58 42V16C58 12.6863 55.3137 10 52 10H12Z" fill="#8E8E93"/>
  
  <!-- Inner chat bubble -->
  <path d="M12 8C8.13401 8 5 11.134 5 15V37C5 40.866 8.13401 44 12 44H15V52.5C15 53.8807 16.6193 54.6193 17.7071 53.5355L29.5858 42H52C55.866 42 59 38.866 59 35V15C59 11.134 55.866 8 52 8H12Z" fill="#007AFF"/>
  
  <!-- Chat dots (exactly like emoji) -->
  <circle cx="20" cy="25" r="2.5" fill="white"/>
  <circle cx="32" cy="25" r="2.5" fill="white"/>
  <circle cx="44" cy="25" r="2.5" fill="white"/>
  
  <!-- Subtle gradient overlay for depth -->
  <defs>
    <linearGradient id="bubbleGradient" x1="0%" y1="0%" x2="0%" y2="100%">
      <stop offset="0%" style="stop-color:#4DA6FF;stop-opacity:0.3"/>
      <stop offset="100%" style="stop-color:#0051D5;stop-opacity:0.1"/>
    </linearGradient>
  </defs>
  <path d="M12 8C8.13401 8 5 11.134 5 15V37C5 40.866 8.13401 44 12 44H15V52.5C15 53.8807 16.6193 54.6193 17.7071 53.5355L29.5858 42H52C55.866 42 59 38.866 59 35V15C59 11.134 55.866 8 52 8H12Z" fill="url(#bubbleGradient)"/>
</svg>
