<svg xmlns="http://www.w3.org/2000/svg" xmlns:xlink="http://www.w3.org/1999/xlink" width="140" zoomAndPan="magnify" viewBox="0 0 104.88 32.999998" height="44" preserveAspectRatio="xMidYMid meet" version="1.0"><defs><g/></defs><g fill="#05A" fill-opacity="1"><g transform="translate(9.85825, 16.889461)"><g><path d="M 1.546875 0 L 1.546875 -12.3125 L 4.15625 -12.3125 L 4.15625 0 Z M 1.546875 0 "/></g></g></g><g fill="#05A" fill-opacity="1"><g transform="translate(15.600795, 16.889461)"><g><path d="M 12.46875 0 L 9.15625 0 L 3.796875 -9.3125 L 3.71875 -9.3125 C 3.832031 -7.664062 3.890625 -6.492188 3.890625 -5.796875 L 3.890625 0 L 1.546875 0 L 1.546875 -12.3125 L 4.84375 -12.3125 L 10.1875 -3.09375 L 10.25 -3.09375 C 10.164062 -4.6875 10.125 -5.816406 10.125 -6.484375 L 10.125 -12.3125 L 12.46875 -12.3125 Z M 12.46875 0 "/></g></g></g><g fill="#05A" fill-opacity="1"><g transform="translate(29.65284, 16.889461)"><g><path d="M 4.125 0 L 1.546875 0 L 1.546875 -12.3125 L 8.609375 -12.3125 L 8.609375 -10.171875 L 4.125 -10.171875 L 4.125 -7 L 8.296875 -7 L 8.296875 -4.875 L 4.125 -4.875 Z M 4.125 0 "/></g></g></g><g fill="#05A" fill-opacity="1"><g transform="translate(39.150231, 16.889461)"><g><path d="M 12.734375 -6.171875 C 12.734375 -4.128906 12.222656 -2.5625 11.203125 -1.46875 C 10.191406 -0.375 8.742188 0.171875 6.859375 0.171875 C 4.972656 0.171875 3.523438 -0.375 2.515625 -1.46875 C 1.503906 -2.5625 1 -4.132812 1 -6.1875 C 1 -8.238281 1.503906 -9.804688 2.515625 -10.890625 C 3.535156 -11.972656 4.988281 -12.515625 6.875 -12.515625 C 8.769531 -12.515625 10.21875 -11.96875 11.21875 -10.875 C 12.226562 -9.78125 12.734375 -8.210938 12.734375 -6.171875 Z M 3.734375 -6.171875 C 3.734375 -4.796875 3.992188 -3.757812 4.515625 -3.0625 C 5.046875 -2.363281 5.828125 -2.015625 6.859375 -2.015625 C 8.941406 -2.015625 9.984375 -3.398438 9.984375 -6.171875 C 9.984375 -8.941406 8.945312 -10.328125 6.875 -10.328125 C 5.84375 -10.328125 5.0625 -9.976562 4.53125 -9.28125 C 4 -8.582031 3.734375 -7.546875 3.734375 -6.171875 Z M 3.734375 -6.171875 "/></g></g></g><g fill="#05A" fill-opacity="1"><g transform="translate(52.907609, 16.889461)"><g><path d="M 1.546875 -12.3125 L 5.375 -12.3125 C 7.125 -12.3125 8.394531 -12.0625 9.1875 -11.5625 C 9.976562 -11.070312 10.375 -10.285156 10.375 -9.203125 C 10.375 -8.460938 10.195312 -7.851562 9.84375 -7.375 C 9.5 -6.90625 9.039062 -6.625 8.46875 -6.53125 L 8.46875 -6.453125 C 9.25 -6.273438 9.8125 -5.945312 10.15625 -5.46875 C 10.507812 -5 10.6875 -4.367188 10.6875 -3.578125 C 10.6875 -2.453125 10.28125 -1.570312 9.46875 -0.9375 C 8.65625 -0.3125 7.550781 0 6.15625 0 L 1.546875 0 Z M 4.15625 -7.4375 L 5.671875 -7.4375 C 6.378906 -7.4375 6.890625 -7.546875 7.203125 -7.765625 C 7.523438 -7.984375 7.6875 -8.347656 7.6875 -8.859375 C 7.6875 -9.328125 7.515625 -9.660156 7.171875 -9.859375 C 6.828125 -10.066406 6.28125 -10.171875 5.53125 -10.171875 L 4.15625 -10.171875 Z M 4.15625 -5.359375 L 4.15625 -2.15625 L 5.859375 -2.15625 C 6.578125 -2.15625 7.109375 -2.289062 7.453125 -2.5625 C 7.796875 -2.84375 7.96875 -3.265625 7.96875 -3.828125 C 7.96875 -4.847656 7.238281 -5.359375 5.78125 -5.359375 Z M 4.15625 -5.359375 "/></g></g></g><g fill="#05A" fill-opacity="1"><g transform="translate(64.526576, 16.889461)"><g><path d="M 5.375 -7.25 L 7.953125 -12.3125 L 10.765625 -12.3125 L 6.671875 -4.796875 L 6.671875 0 L 4.078125 0 L 4.078125 -4.703125 L 0 -12.3125 L 2.828125 -12.3125 Z M 5.375 -7.25 "/></g></g></g><g fill="#05A" fill-opacity="1"><g transform="translate(75.320487, 16.889461)"><g><path d="M 6.296875 0 L 3.6875 0 L 3.6875 -10.140625 L 0.34375 -10.140625 L 0.34375 -12.3125 L 9.640625 -12.3125 L 9.640625 -10.140625 L 6.296875 -10.140625 Z M 6.296875 0 "/></g></g></g><g fill="#05A" fill-opacity="1"><g transform="translate(85.339855, 16.889461)"><g><path d="M 8.640625 0 L 1.546875 0 L 1.546875 -12.3125 L 8.640625 -12.3125 L 8.640625 -10.171875 L 4.15625 -10.171875 L 4.15625 -7.46875 L 8.328125 -7.46875 L 8.328125 -5.328125 L 4.15625 -5.328125 L 4.15625 -2.15625 L 8.640625 -2.15625 Z M 8.640625 0 "/></g></g></g><g fill="#05A" fill-opacity="1"><g transform="translate(10.307273, 26.849076)"><g><path d="M 0.0625 -4.6875 L 0.0625 -5.859375 L 4.171875 -5.859375 L 4.171875 -4.6875 L 2.78125 -4.6875 L 2.78125 0 L 1.453125 0 L 1.453125 -4.6875 Z M 0.0625 -4.6875 "/></g></g></g><g fill="#05A" fill-opacity="1"><g transform="translate(16.049872, 26.849076)"><g><path d="M 3.78125 -5.859375 L 3.78125 -4.6875 L 1.765625 -4.6875 L 1.765625 -3.515625 L 3.6875 -3.515625 L 3.6875 -2.34375 L 1.765625 -2.34375 L 1.765625 -1.171875 L 3.78125 -1.171875 L 3.78125 0 L 0.421875 0 L 0.421875 -5.859375 Z M 3.78125 -5.859375 "/></g></g></g><g fill="#05A" fill-opacity="1"><g transform="translate(21.679037, 26.849076)"><g><path d="M 3.546875 -1.203125 C 3.742188 -1.203125 3.9375 -1.234375 4.125 -1.296875 C 4.320312 -1.359375 4.460938 -1.414062 4.546875 -1.46875 L 4.6875 -1.5625 L 5.25 -0.4375 C 5.238281 -0.414062 5.210938 -0.394531 5.171875 -0.375 C 5.140625 -0.351562 5.0625 -0.3125 4.9375 -0.25 C 4.820312 -0.1875 4.695312 -0.128906 4.5625 -0.078125 C 4.425781 -0.0234375 4.242188 0.015625 4.015625 0.046875 C 3.796875 0.0859375 3.566406 0.109375 3.328125 0.109375 C 2.785156 0.109375 2.269531 -0.0195312 1.78125 -0.28125 C 1.300781 -0.550781 0.910156 -0.921875 0.609375 -1.390625 C 0.304688 -1.859375 0.15625 -2.367188 0.15625 -2.921875 C 0.15625 -3.328125 0.242188 -3.71875 0.421875 -4.09375 C 0.597656 -4.476562 0.832031 -4.800781 1.125 -5.0625 C 1.414062 -5.332031 1.753906 -5.546875 2.140625 -5.703125 C 2.523438 -5.867188 2.921875 -5.953125 3.328125 -5.953125 C 3.710938 -5.953125 4.0625 -5.90625 4.375 -5.8125 C 4.695312 -5.726562 4.925781 -5.640625 5.0625 -5.546875 L 5.25 -5.421875 L 4.6875 -4.28125 C 4.65625 -4.3125 4.601562 -4.347656 4.53125 -4.390625 C 4.46875 -4.429688 4.335938 -4.484375 4.140625 -4.546875 C 3.941406 -4.609375 3.742188 -4.640625 3.546875 -4.640625 C 3.222656 -4.640625 2.929688 -4.585938 2.671875 -4.484375 C 2.421875 -4.378906 2.21875 -4.242188 2.0625 -4.078125 C 1.914062 -3.910156 1.800781 -3.726562 1.71875 -3.53125 C 1.644531 -3.332031 1.609375 -3.128906 1.609375 -2.921875 C 1.609375 -2.484375 1.773438 -2.085938 2.109375 -1.734375 C 2.441406 -1.378906 2.921875 -1.203125 3.546875 -1.203125 Z M 3.546875 -1.203125 "/></g></g></g><g fill="#05A" fill-opacity="1"><g transform="translate(28.534703, 26.849076)"><g><path d="M 1.765625 -2.34375 L 1.765625 0 L 0.421875 0 L 0.421875 -5.859375 L 1.765625 -5.859375 L 1.765625 -3.515625 L 3.640625 -3.515625 L 3.640625 -5.859375 L 4.984375 -5.859375 L 4.984375 0 L 3.640625 0 L 3.640625 -2.34375 Z M 1.765625 -2.34375 "/></g></g></g><g fill="#05A" fill-opacity="1"><g transform="translate(35.454177, 26.849076)"><g/></g></g><g fill="#05A" fill-opacity="1"><g transform="translate(38.906818, 26.849076)"><g><path d="M 2.578125 -5.953125 C 2.898438 -5.953125 3.210938 -5.90625 3.515625 -5.8125 C 3.816406 -5.726562 4.039062 -5.640625 4.1875 -5.546875 L 4.390625 -5.40625 L 3.859375 -4.34375 C 3.816406 -4.375 3.753906 -4.410156 3.671875 -4.453125 C 3.597656 -4.492188 3.457031 -4.550781 3.25 -4.625 C 3.039062 -4.707031 2.847656 -4.75 2.671875 -4.75 C 2.453125 -4.75 2.28125 -4.703125 2.15625 -4.609375 C 2.039062 -4.515625 1.984375 -4.382812 1.984375 -4.21875 C 1.984375 -4.132812 2.007812 -4.054688 2.0625 -3.984375 C 2.125 -3.921875 2.222656 -3.847656 2.359375 -3.765625 C 2.492188 -3.691406 2.613281 -3.628906 2.71875 -3.578125 C 2.820312 -3.535156 2.984375 -3.46875 3.203125 -3.375 C 3.578125 -3.21875 3.894531 -3 4.15625 -2.71875 C 4.425781 -2.445312 4.5625 -2.132812 4.5625 -1.78125 C 4.5625 -1.445312 4.5 -1.15625 4.375 -0.90625 C 4.257812 -0.65625 4.097656 -0.457031 3.890625 -0.3125 C 3.679688 -0.164062 3.445312 -0.0625 3.1875 0 C 2.9375 0.0703125 2.660156 0.109375 2.359375 0.109375 C 2.109375 0.109375 1.859375 0.0820312 1.609375 0.03125 C 1.359375 -0.0195312 1.148438 -0.0820312 0.984375 -0.15625 C 0.828125 -0.238281 0.679688 -0.316406 0.546875 -0.390625 C 0.410156 -0.472656 0.3125 -0.539062 0.25 -0.59375 L 0.15625 -0.671875 L 0.828125 -1.78125 C 0.890625 -1.738281 0.96875 -1.679688 1.0625 -1.609375 C 1.164062 -1.535156 1.34375 -1.4375 1.59375 -1.3125 C 1.84375 -1.1875 2.066406 -1.125 2.265625 -1.125 C 2.828125 -1.125 3.109375 -1.316406 3.109375 -1.703125 C 3.109375 -1.785156 3.085938 -1.859375 3.046875 -1.921875 C 3.003906 -1.992188 2.929688 -2.0625 2.828125 -2.125 C 2.734375 -2.195312 2.644531 -2.253906 2.5625 -2.296875 C 2.488281 -2.335938 2.363281 -2.398438 2.1875 -2.484375 C 2.007812 -2.566406 1.875 -2.628906 1.78125 -2.671875 C 1.425781 -2.835938 1.148438 -3.050781 0.953125 -3.3125 C 0.765625 -3.582031 0.671875 -3.867188 0.671875 -4.171875 C 0.671875 -4.691406 0.863281 -5.117188 1.25 -5.453125 C 1.644531 -5.785156 2.085938 -5.953125 2.578125 -5.953125 Z M 2.578125 -5.953125 "/></g></g></g><g fill="#05A" fill-opacity="1"><g transform="translate(45.188228, 26.849076)"><g><path d="M 0.15625 -2.921875 C 0.15625 -3.773438 0.441406 -4.492188 1.015625 -5.078125 C 1.597656 -5.660156 2.296875 -5.953125 3.109375 -5.953125 C 3.929688 -5.953125 4.628906 -5.660156 5.203125 -5.078125 C 5.773438 -4.492188 6.0625 -3.773438 6.0625 -2.921875 C 6.0625 -2.066406 5.78125 -1.347656 5.21875 -0.765625 C 4.65625 -0.179688 3.953125 0.109375 3.109375 0.109375 C 2.253906 0.109375 1.546875 -0.175781 0.984375 -0.75 C 0.429688 -1.332031 0.15625 -2.054688 0.15625 -2.921875 Z M 1.609375 -2.921875 C 1.609375 -2.617188 1.65625 -2.335938 1.75 -2.078125 C 1.84375 -1.828125 2.003906 -1.613281 2.234375 -1.4375 C 2.472656 -1.269531 2.765625 -1.1875 3.109375 -1.1875 C 3.609375 -1.1875 3.984375 -1.351562 4.234375 -1.6875 C 4.492188 -2.03125 4.625 -2.441406 4.625 -2.921875 C 4.625 -3.398438 4.492188 -3.8125 4.234375 -4.15625 C 3.972656 -4.5 3.597656 -4.671875 3.109375 -4.671875 C 2.628906 -4.671875 2.257812 -4.5 2 -4.15625 C 1.738281 -3.8125 1.609375 -3.398438 1.609375 -2.921875 Z M 1.609375 -2.921875 "/></g></g></g><g fill="#05A" fill-opacity="1"><g transform="translate(52.923014, 26.849076)"><g><path d="M 1.765625 -5.859375 L 1.765625 -1.171875 L 3.78125 -1.171875 L 3.78125 0 L 0.421875 0 L 0.421875 -5.859375 Z M 1.765625 -5.859375 "/></g></g></g><g fill="#05A" fill-opacity="1"><g transform="translate(58.445832, 26.849076)"><g><path d="M 4.921875 -5.859375 L 4.921875 -2.078125 C 4.921875 -1.359375 4.726562 -0.8125 4.34375 -0.4375 C 3.957031 -0.0703125 3.390625 0.109375 2.640625 0.109375 C 1.890625 0.109375 1.320312 -0.0703125 0.9375 -0.4375 C 0.550781 -0.8125 0.359375 -1.359375 0.359375 -2.078125 L 0.359375 -5.859375 L 1.6875 -5.859375 L 1.6875 -2.46875 C 1.6875 -2 1.757812 -1.671875 1.90625 -1.484375 C 2.0625 -1.296875 2.304688 -1.203125 2.640625 -1.203125 C 2.972656 -1.203125 3.210938 -1.296875 3.359375 -1.484375 C 3.515625 -1.671875 3.59375 -2 3.59375 -2.46875 L 3.59375 -5.859375 Z M 4.921875 -5.859375 "/></g></g></g><g fill="#05A" fill-opacity="1"><g transform="translate(65.2377, 26.849076)"><g><path d="M 0.0625 -4.6875 L 0.0625 -5.859375 L 4.171875 -5.859375 L 4.171875 -4.6875 L 2.78125 -4.6875 L 2.78125 0 L 1.453125 0 L 1.453125 -4.6875 Z M 0.0625 -4.6875 "/></g></g></g><g fill="#05A" fill-opacity="1"><g transform="translate(70.9803, 26.849076)"><g><path d="M 1.765625 -5.859375 L 1.765625 0 L 0.421875 0 L 0.421875 -5.859375 Z M 1.765625 -5.859375 "/></g></g></g><g fill="#05A" fill-opacity="1"><g transform="translate(74.681084, 26.849076)"><g><path d="M 0.15625 -2.921875 C 0.15625 -3.773438 0.441406 -4.492188 1.015625 -5.078125 C 1.597656 -5.660156 2.296875 -5.953125 3.109375 -5.953125 C 3.929688 -5.953125 4.628906 -5.660156 5.203125 -5.078125 C 5.773438 -4.492188 6.0625 -3.773438 6.0625 -2.921875 C 6.0625 -2.066406 5.78125 -1.347656 5.21875 -0.765625 C 4.65625 -0.179688 3.953125 0.109375 3.109375 0.109375 C 2.253906 0.109375 1.546875 -0.175781 0.984375 -0.75 C 0.429688 -1.332031 0.15625 -2.054688 0.15625 -2.921875 Z M 1.609375 -2.921875 C 1.609375 -2.617188 1.65625 -2.335938 1.75 -2.078125 C 1.84375 -1.828125 2.003906 -1.613281 2.234375 -1.4375 C 2.472656 -1.269531 2.765625 -1.1875 3.109375 -1.1875 C 3.609375 -1.1875 3.984375 -1.351562 4.234375 -1.6875 C 4.492188 -2.03125 4.625 -2.441406 4.625 -2.921875 C 4.625 -3.398438 4.492188 -3.8125 4.234375 -4.15625 C 3.972656 -4.5 3.597656 -4.671875 3.109375 -4.671875 C 2.628906 -4.671875 2.257812 -4.5 2 -4.15625 C 1.738281 -3.8125 1.609375 -3.398438 1.609375 -2.921875 Z M 1.609375 -2.921875 "/></g></g></g><g fill="#05A" fill-opacity="1"><g transform="translate(82.415873, 26.849076)"><g><path d="M 1.765625 -3.625 L 1.765625 0 L 0.421875 0 L 0.421875 -5.859375 L 1.765625 -5.859375 L 4.09375 -2.21875 L 4.09375 -5.859375 L 5.4375 -5.859375 L 5.4375 0 L 4.09375 0 Z M 1.765625 -3.625 "/></g></g></g><g fill="#05A" fill-opacity="1"><g transform="translate(89.789084, 26.849076)"><g><path d="M 2.578125 -5.953125 C 2.898438 -5.953125 3.210938 -5.90625 3.515625 -5.8125 C 3.816406 -5.726562 4.039062 -5.640625 4.1875 -5.546875 L 4.390625 -5.40625 L 3.859375 -4.34375 C 3.816406 -4.375 3.753906 -4.410156 3.671875 -4.453125 C 3.597656 -4.492188 3.457031 -4.550781 3.25 -4.625 C 3.039062 -4.707031 2.847656 -4.75 2.671875 -4.75 C 2.453125 -4.75 2.28125 -4.703125 2.15625 -4.609375 C 2.039062 -4.515625 1.984375 -4.382812 1.984375 -4.21875 C 1.984375 -4.132812 2.007812 -4.054688 2.0625 -3.984375 C 2.125 -3.921875 2.222656 -3.847656 2.359375 -3.765625 C 2.492188 -3.691406 2.613281 -3.628906 2.71875 -3.578125 C 2.820312 -3.535156 2.984375 -3.46875 3.203125 -3.375 C 3.578125 -3.21875 3.894531 -3 4.15625 -2.71875 C 4.425781 -2.445312 4.5625 -2.132812 4.5625 -1.78125 C 4.5625 -1.445312 4.5 -1.15625 4.375 -0.90625 C 4.257812 -0.65625 4.097656 -0.457031 3.890625 -0.3125 C 3.679688 -0.164062 3.445312 -0.0625 3.1875 0 C 2.9375 0.0703125 2.660156 0.109375 2.359375 0.109375 C 2.109375 0.109375 1.859375 0.0820312 1.609375 0.03125 C 1.359375 -0.0195312 1.148438 -0.0820312 0.984375 -0.15625 C 0.828125 -0.238281 0.679688 -0.316406 0.546875 -0.390625 C 0.410156 -0.472656 0.3125 -0.539062 0.25 -0.59375 L 0.15625 -0.671875 L 0.828125 -1.78125 C 0.890625 -1.738281 0.96875 -1.679688 1.0625 -1.609375 C 1.164062 -1.535156 1.34375 -1.4375 1.59375 -1.3125 C 1.84375 -1.1875 2.066406 -1.125 2.265625 -1.125 C 2.828125 -1.125 3.109375 -1.316406 3.109375 -1.703125 C 3.109375 -1.785156 3.085938 -1.859375 3.046875 -1.921875 C 3.003906 -1.992188 2.929688 -2.0625 2.828125 -2.125 C 2.734375 -2.195312 2.644531 -2.253906 2.5625 -2.296875 C 2.488281 -2.335938 2.363281 -2.398438 2.1875 -2.484375 C 2.007812 -2.566406 1.875 -2.628906 1.78125 -2.671875 C 1.425781 -2.835938 1.148438 -3.050781 0.953125 -3.3125 C 0.765625 -3.582031 0.671875 -3.867188 0.671875 -4.171875 C 0.671875 -4.691406 0.863281 -5.117188 1.25 -5.453125 C 1.644531 -5.785156 2.085938 -5.953125 2.578125 -5.953125 Z M 2.578125 -5.953125 "/></g></g></g></svg>